<svg width="22" height="16" viewBox="0 0 22 16" fill="none" xmlns="http://www.w3.org/2000/svg">
<path d="M21.2436 0.933594L11.5414 10.5958C11.2917 10.844 10.9539 10.9834 10.6018 10.9834C10.2497 10.9834 9.91193 10.844 9.66223 10.5958L0.0466453 1.00689C0.0170851 1.11554 0.00141181 1.22749 0 1.34007V14.6673C0 15.0207 0.140411 15.3597 0.390345 15.6097C0.640279 15.8596 0.979261 16 1.33272 16H19.9908C20.3443 16 20.6833 15.8596 20.9332 15.6097C21.1831 15.3597 21.3235 15.0207 21.3235 14.6673V1.34007C21.3182 1.20124 21.2913 1.06409 21.2436 0.933594ZM2.24564 14.6673H1.31939V13.7144L6.16383 8.90993L7.1034 9.8495L2.24564 14.6673ZM19.9775 14.6673H19.0446L14.1868 9.8495L15.1264 8.90993L19.9708 13.7144L19.9775 14.6673Z" fill="#A5A5A5"/>
</svg>
