<svg width="12" height="12" viewBox="0 0 12 12" fill="none" xmlns="http://www.w3.org/2000/svg">
<path d="M3.28791 2.13599C3.28791 2.79018 2.85055 3.35321 2.0553 3.35321C1.30686 3.35321 0.823914 2.82222 0.823914 2.16802C0.823914 1.49658 1.29207 0.903992 2.05591 0.903992C2.81975 0.903992 3.27313 1.46455 3.28791 2.13599ZM0.823914 11.992V3.98399H3.28791V11.992H0.823914Z" fill="#CBAB81"/>
<path d="M4.51995 6.72148C4.51995 5.76976 4.48854 4.97451 4.45712 4.28767H6.67103L6.78067 5.34903H6.82749C7.13919 4.84946 7.90303 4.11703 9.18184 4.11703C10.7416 4.11703 11.912 5.16115 11.912 7.40771V11.992H9.44796V7.7656C9.44796 6.7837 9.07404 6.03464 8.21596 6.03464C7.56176 6.03464 7.23405 6.5644 7.06219 7.00115C6.99935 7.15761 6.98395 7.37567 6.98395 7.59435V11.992H4.51995V6.72148Z" fill="#CBAB81"/>
</svg>
