<svg width="95" height="26" viewBox="0 0 95 26" fill="none" xmlns="http://www.w3.org/2000/svg">
<path d="M5.315 21.115H13.365V25H0.415V0.57H5.315V21.115ZM27.8195 25.245C25.5328 25.245 23.4328 24.7083 21.5195 23.635C19.6061 22.5617 18.0895 21.08 16.9695 19.19C15.8495 17.2767 15.2895 15.1183 15.2895 12.715C15.2895 10.335 15.8495 8.2 16.9695 6.31C18.0895 4.39666 19.6061 2.90333 21.5195 1.83C23.4328 0.756666 25.5328 0.22 27.8195 0.22C30.1295 0.22 32.2295 0.756666 34.1195 1.83C36.0328 2.90333 37.5378 4.39666 38.6345 6.31C39.7545 8.2 40.3145 10.335 40.3145 12.715C40.3145 15.1183 39.7545 17.2767 38.6345 19.19C37.5378 21.08 36.0328 22.5617 34.1195 23.635C32.2061 24.7083 30.1061 25.245 27.8195 25.245ZM27.8195 20.87C29.2895 20.87 30.5845 20.5433 31.7045 19.89C32.8245 19.2133 33.6995 18.2567 34.3295 17.02C34.9595 15.7833 35.2745 14.3483 35.2745 12.715C35.2745 11.0817 34.9595 9.65833 34.3295 8.445C33.6995 7.20833 32.8245 6.26333 31.7045 5.61C30.5845 4.95667 29.2895 4.63 27.8195 4.63C26.3495 4.63 25.0428 4.95667 23.8995 5.61C22.7795 6.26333 21.9045 7.20833 21.2745 8.445C20.6445 9.65833 20.3295 11.0817 20.3295 12.715C20.3295 14.3483 20.6445 15.7833 21.2745 17.02C21.9045 18.2567 22.7795 19.2133 23.8995 19.89C25.0428 20.5433 26.3495 20.87 27.8195 20.87ZM60.9699 7.92C60.4099 6.89333 59.6399 6.11167 58.6599 5.575C57.6799 5.03833 56.5366 4.77 55.2299 4.77C53.7833 4.77 52.4999 5.09667 51.3799 5.75C50.2599 6.40333 49.3849 7.33667 48.7549 8.55C48.1249 9.76333 47.8099 11.1633 47.8099 12.75C47.8099 14.3833 48.1249 15.8067 48.7549 17.02C49.4083 18.2333 50.3066 19.1667 51.4499 19.82C52.5933 20.4733 53.9233 20.8 55.4399 20.8C57.3066 20.8 58.8349 20.31 60.0249 19.33C61.2149 18.3267 61.9966 16.9383 62.3699 15.165H53.9699V11.42H67.1999V15.69C66.8733 17.3933 66.1733 18.9683 65.0999 20.415C64.0266 21.8617 62.6383 23.0283 60.9349 23.915C59.2549 24.7783 57.3649 25.21 55.2649 25.21C52.9083 25.21 50.7733 24.685 48.8599 23.635C46.9699 22.5617 45.4766 21.08 44.3799 19.19C43.3066 17.3 42.7699 15.1533 42.7699 12.75C42.7699 10.3467 43.3066 8.2 44.3799 6.31C45.4766 4.39666 46.9699 2.915 48.8599 1.865C50.7733 0.791666 52.8966 0.254999 55.2299 0.254999C57.9833 0.254999 60.3749 0.931666 62.4049 2.285C64.4349 3.615 65.8349 5.49333 66.6049 7.92H60.9699ZM82.1652 25.245C79.8785 25.245 77.7785 24.7083 75.8652 23.635C73.9518 22.5617 72.4352 21.08 71.3152 19.19C70.1952 17.2767 69.6352 15.1183 69.6352 12.715C69.6352 10.335 70.1952 8.2 71.3152 6.31C72.4352 4.39666 73.9518 2.90333 75.8652 1.83C77.7785 0.756666 79.8785 0.22 82.1652 0.22C84.4752 0.22 86.5752 0.756666 88.4652 1.83C90.3785 2.90333 91.8835 4.39666 92.9802 6.31C94.1002 8.2 94.6602 10.335 94.6602 12.715C94.6602 15.1183 94.1002 17.2767 92.9802 19.19C91.8835 21.08 90.3785 22.5617 88.4652 23.635C86.5518 24.7083 84.4518 25.245 82.1652 25.245ZM82.1652 20.87C83.6352 20.87 84.9302 20.5433 86.0502 19.89C87.1702 19.2133 88.0452 18.2567 88.6752 17.02C89.3052 15.7833 89.6202 14.3483 89.6202 12.715C89.6202 11.0817 89.3052 9.65833 88.6752 8.445C88.0452 7.20833 87.1702 6.26333 86.0502 5.61C84.9302 4.95667 83.6352 4.63 82.1652 4.63C80.6952 4.63 79.3885 4.95667 78.2452 5.61C77.1252 6.26333 76.2502 7.20833 75.6202 8.445C74.9902 9.65833 74.6752 11.0817 74.6752 12.715C74.6752 14.3483 74.9902 15.7833 75.6202 17.02C76.2502 18.2567 77.1252 19.2133 78.2452 19.89C79.3885 20.5433 80.6952 20.87 82.1652 20.87Z" fill="#00C9C4"/>
</svg>
