<svg width="14" height="12" viewBox="0 0 14 12" fill="none" xmlns="http://www.w3.org/2000/svg">
<path d="M13.6554 2.21923C13.1538 2.44149 12.615 2.59166 12.0485 2.65954C12.633 2.30981 13.0703 1.75938 13.2787 1.11094C12.7296 1.43712 12.1286 1.66671 11.5019 1.78973C11.0804 1.33973 10.5222 1.04146 9.91383 0.94123C9.30548 0.841003 8.68106 0.944425 8.13751 1.23544C7.59396 1.52645 7.1617 1.98878 6.90783 2.55064C6.65396 3.1125 6.59269 3.74245 6.73354 4.3427C5.62085 4.28683 4.53235 3.99763 3.53868 3.49385C2.545 2.99008 1.66835 2.283 0.965634 1.4185C0.725354 1.83298 0.587194 2.31354 0.587194 2.82534C0.586926 3.28607 0.700385 3.73974 0.917505 4.14611C1.13462 4.55248 1.44869 4.89897 1.83184 5.15484C1.38749 5.1407 0.952943 5.02064 0.564367 4.80464V4.84068C0.564323 5.48687 0.787847 6.11318 1.19701 6.61333C1.60618 7.11349 2.17578 7.45668 2.80918 7.58467C2.39697 7.69622 1.9648 7.71266 1.54531 7.63272C1.72401 8.18874 2.07212 8.67495 2.54088 9.02329C3.00965 9.37164 3.57562 9.56467 4.15954 9.57538C3.16829 10.3535 1.9441 10.7756 0.683906 10.7738C0.460676 10.7738 0.237634 10.7608 0.0159302 10.7347C1.2951 11.5572 2.78415 11.9937 4.30491 11.992C9.4529 11.992 12.2672 7.72823 12.2672 4.03034C12.2672 3.9102 12.2642 3.78885 12.2588 3.66872C12.8062 3.27284 13.2787 2.78262 13.6542 2.22103L13.6554 2.21923Z" fill="#CBAB81"/>
</svg>
